<?xml version="1.0"?>
<!--Icons from directory ""-->
<svg xmlns="http://www.w3.org/2000/svg" width="32" height="96" viewBox="0 0 32 96"><svg xmlns:xlink="http://www.w3.org/1999/xlink" id="fb" style="enable-background:new 0 0 112.196 112.196" xml:space="preserve" viewBox="0 0 112.196 112.196" version="1.1" y="0" x="0px" width="32" height="32">	<circle cx="56.098" r="56.098" cy="56.098" fill="#3B5998"/>	<path d="m70.201 58.294h-10.01v36.672h-15.166v-36.672h-7.213v-12.888h7.213v-8.34c0-5.964 2.833-15.303 15.301-15.303l11.234 0.047v12.51h-8.151c-1.337 0-3.217 0.668-3.217 3.513v7.585h11.334l-1.325 12.876z" fill="#fff"/></svg><svg xmlns:xlink="http://www.w3.org/1999/xlink" xml:space="preserve" version="1.1" viewBox="0 0 64 64" enable-background="new 0 0 64 64" width="32" height="32" id="gh" y="32"><g id="gh-Layer_3"><path d="m32.001 63.251c-17.23 0-31.25-14.02-31.25-31.25s14.02-31.25 31.25-31.25 31.25 14.02 31.25 31.25-14.02 31.25-31.25 31.25z" fill="#fff"/><path d="m32 1.5c16.818 0 30.5 13.682 30.5 30.5s-13.682 30.5-30.5 30.5-30.5-13.682-30.5-30.5 13.682-30.5 30.5-30.5m0-1.5c-17.673 0-32 14.327-32 32s14.327 32 32 32 32-14.327 32-32c0-17.673-14.327-32-32-32z" fill="#E5E5E5"/><g id="gh-Outline_Filled_5_"><path id="gh-Cat_1_" d="m38.592 50.166h-9.684s0.014-2.874 0-4.844c-6.629 1.428-8.479-3.633-8.479-3.633-1.21-2.423-2.423-3.633-2.423-3.633-2.423-1.438 0-1.21 0-1.21 2.423 0 3.633 2.423 3.633 2.423 2.126 3.609 5.908 3.028 7.266 2.423 0-1.21 0.53-3.042 1.21-3.633-5.29-0.595-9.693-3.633-9.693-9.689s1.216-7.266 2.427-8.479c-0.244-0.597-1.259-2.805 0.037-6.056 0 0 2.38 0 4.803 3.633 1.2-1.2 4.844-1.21 6.056-1.21 1.208 0 4.854 0.01 6.054 1.21 2.423-3.633 4.809-3.633 4.809-3.633 1.296 3.251 0.282 5.459 0.037 6.056 1.21 1.21 2.423 2.423 2.423 8.479s-4.397 9.092-9.689 9.689c0.682 0.591 1.21 2.675 1.21 3.633l0.003 8.474z" fill="#333"/></g></g></svg><svg xmlns:xlink="http://www.w3.org/1999/xlink" id="vk" style="enable-background:new 0 0 112.196 112.196" xml:space="preserve" viewBox="0 0 112.196 112.196" version="1.1" y="64" x="0px" width="32" height="32">		<circle id="vk-XMLID_11_" cx="56.098" cy="56.098" r="56.098" fill="#4D76A1"/>	<path fill-rule="evenodd" clip-rule="evenodd" d="m53.979 80.702h4.403s1.33-0.146 2.009-0.878c0.625-0.672 0.605-1.934 0.605-1.934s-0.086-5.908 2.656-6.778c2.703-0.857 6.174 5.71 9.853 8.235 2.782 1.911 4.896 1.492 4.896 1.492l9.837-0.137s5.146-0.317 2.706-4.363c-0.2-0.331-1.421-2.993-7.314-8.463-6.168-5.725-5.342-4.799 2.088-14.702 4.525-6.031 6.334-9.713 5.769-11.29-0.539-1.502-3.867-1.105-3.867-1.105l-11.076 0.069s-0.821-0.112-1.43 0.252c-0.595 0.357-0.978 1.189-0.978 1.189s-1.753 4.667-4.091 8.636c-4.932 8.375-6.904 8.817-7.71 8.297-1.875-1.212-1.407-4.869-1.407-7.467 0-8.116 1.231-11.5-2.397-12.376-1.204-0.291-2.09-0.483-5.169-0.514-3.952-0.041-7.297 0.012-9.191 0.94-1.26 0.617-2.232 1.992-1.64 2.071 0.732 0.098 2.39 0.447 3.269 1.644 1.135 1.544 1.095 5.012 1.095 5.012s0.652 9.554-1.523 10.741c-1.493 0.814-3.541-0.848-7.938-8.446-2.253-3.892-3.954-8.194-3.954-8.194s-0.328-0.804-0.913-1.234c-0.71-0.521-1.702-0.687-1.702-0.687l-10.525 0.069s-1.58 0.044-2.16 0.731c-0.516 0.611-0.041 1.875-0.041 1.875s8.24 19.278 17.57 28.993c8.555 8.907 18.27 8.322 18.27 8.322z" fill="#fff"/></svg></svg>
